<?xml version="1.0" encoding="UTF-8" standalone="no"?>
<!-- Created with Inkscape (http://www.inkscape.org/) -->

<svg
   xmlns:dc="http://purl.org/dc/elements/1.1/"
   xmlns:cc="http://creativecommons.org/ns#"
   xmlns:rdf="http://www.w3.org/1999/02/22-rdf-syntax-ns#"
   xmlns:svg="http://www.w3.org/2000/svg"
   xmlns="http://www.w3.org/2000/svg"
   xmlns:sodipodi="http://sodipodi.sourceforge.net/DTD/sodipodi-0.dtd"
   xmlns:inkscape="http://www.inkscape.org/namespaces/inkscape"
   width="20"
   height="20"
   viewBox="0 0 5.2916667 5.2916665"
   version="1.1"
   id="svg8"
   sodipodi:docname="food-3.svg"
   inkscape:version="0.92.2 2405546, 2018-03-11">
  <defs
     id="defs2" />
  <sodipodi:namedview
     id="base"
     pagecolor="#ffffff"
     bordercolor="#666666"
     borderopacity="1.0"
     inkscape:pageopacity="0.0"
     inkscape:pageshadow="2"
     inkscape:zoom="31.678384"
     inkscape:cx="-2.7047123"
     inkscape:cy="10.790003"
     inkscape:document-units="mm"
     inkscape:current-layer="layer1"
     showgrid="false"
     inkscape:window-width="1920"
     inkscape:window-height="1016"
     inkscape:window-x="0"
     inkscape:window-y="27"
     inkscape:window-maximized="1"
     units="px"
     inkscape:pagecheckerboard="true" />
  <metadata
     id="metadata5">
    <rdf:RDF>
      <cc:Work
         rdf:about="">
        <dc:format>image/svg+xml</dc:format>
        <dc:type
           rdf:resource="http://purl.org/dc/dcmitype/StillImage" />
        <dc:title />
      </cc:Work>
    </rdf:RDF>
  </metadata>
  <g
     inkscape:label="food"
     inkscape:groupmode="layer"
     id="layer1"
     style="display:inline"
     transform="translate(0,-291.70833)">
    <path
       style="fill:#ffffff;fill-opacity:0.74901961;stroke:#ffffff;stroke-width:0.1;stroke-linecap:round;stroke-linejoin:round;stroke-miterlimit:4;stroke-dasharray:none;stroke-dashoffset:0;stroke-opacity:0.74901961"
       id="path908"
       d="m 2.3768228,294.25187 c -0.042682,-0.0452 -0.090375,-0.0851 -0.1341139,-0.12922 -0.029494,-0.0254 -0.059315,-0.0504 -0.088938,-0.0758 -0.02525,-0.0189 -0.051645,-0.036 -0.078089,-0.0533 -0.027565,-0.0195 -0.058183,-0.0325 -0.088079,-0.0477 -0.035329,-0.0194 -0.076279,-0.0233 -0.114536,-0.0343 -0.037416,-0.0143 -0.076262,-0.0229 -0.115734,-0.029 -0.04002,-0.002 -0.08129,-0.0147 -0.1214098,-0.0102 -0.027392,0.007 -0.062558,-1.4e-4 -0.086882,0.0165 -0.031374,0.0131 -0.057987,0.0343 -0.082379,0.0574 -0.029762,0.0232 -0.054403,0.0521 -0.078348,0.081 -0.022192,0.0233 -0.04586,0.0473 -0.061144,0.0759 -0.014215,0.0283 -0.028635,0.0553 -0.036627,0.0861 -0.00872,0.0399 -0.012131,0.0808 -0.015814,0.12136 -0.00403,0.0468 -0.0077,0.0938 -0.011469,0.14062 -0.00292,0.0407 -0.00945,0.0809 -0.0045,0.12155 0.00672,0.0455 0.0068,0.0916 0.00537,0.1375 -0.00208,0.0478 -0.0061,0.0955 -0.010009,0.14322 -0.00301,0.0407 -0.00964,0.0809 -0.00473,0.12152 0.00667,0.0455 0.00675,0.0916 0.00532,0.13744 -0.00138,0.0413 -0.00798,0.0821 -0.00297,0.12324 0.00175,0.0383 0.00851,0.075 0.015583,0.11252 0.00393,0.0328 0.014252,0.0643 0.025736,0.0951 0.01047,0.0326 0.023805,0.0642 0.037276,0.0957 0.013843,0.0246 0.032073,0.0461 0.048993,0.0686 0.018622,0.0196 0.042085,0.0334 0.06403,0.049 0.031465,0.0173 0.060057,0.0384 0.088143,0.0606 0.026717,0.0255 0.051472,0.0528 0.077798,0.0787 0.019949,0.0219 0.044418,0.0327 0.069508,0.0468 0.026685,0.0168 0.057457,0.0222 0.088018,0.0272 0.028952,-0.003 0.057032,-0.005 0.085058,-0.0128 0.033143,-0.009 0.069055,-0.0117 0.100519,-0.0259 0.037144,-0.0125 0.07486,-0.0236 0.1128377,-0.0335 0.048727,-0.0109 0.098798,-0.009 0.1483129,-0.007 0.047765,0.003 0.095448,0.007 0.1431319,0.0111 0.047111,0.004 0.094228,0.008 0.141346,0.0118 0.04911,0.009 0.097014,0.0231 0.1462418,0.0318 0.044601,0.008 0.089696,0.0114 0.1347353,0.0151 0.049803,0.003 0.098843,0.007 0.1470985,0.0201 0.0342,0.0143 0.06719,0.0136 0.1031365,0.0125 0.049052,-0.003 0.098093,-9.5e-4 0.1471373,10e-4 0.037229,-0.005 0.078933,0.0145 0.1154413,0.006 0.026354,-8.4e-4 0.046572,-0.0113 0.068912,-0.0231 0.02393,-0.0169 0.045812,-0.0365 0.068828,-0.0546 0.018889,-0.0208 0.037282,-0.0429 0.053017,-0.0664 0.025268,-0.0307 0.050417,-0.0613 0.075405,-0.0922 0.0195,-0.0268 0.035728,-0.0557 0.053901,-0.0834 0.017779,-0.0239 0.023047,-0.0527 0.028056,-0.0814 0.00648,-0.0435 0.0098,-0.0875 0.013415,-0.13134 0.00824,-0.0431 0.022076,-0.0847 0.030019,-0.12787 0.00915,-0.0358 0.00733,-0.07 0.00329,-0.10595 -0.00547,-0.047 -0.00411,-0.0944 -0.00185,-0.14152 0.00257,-0.0392 -0.00561,-0.0782 -0.00787,-0.11746 -0.0117,-0.0339 -0.0092,-0.0708 -0.017812,-0.10508 -0.00738,-0.0306 -0.013035,-0.0631 -0.02705,-0.0915 -0.00951,-0.0312 -0.023715,-0.0592 -0.039634,-0.0873 -0.015653,-0.0358 -0.037473,-0.0674 -0.052503,-0.10346 -0.011141,-0.033 -0.028608,-0.0623 -0.046603,-0.0917 -0.014883,-0.0278 -0.027576,-0.0582 -0.04845,-0.0822 -0.01893,-0.0249 -0.037515,-0.0509 -0.059352,-0.0735 -0.021926,-0.025 -0.041603,-0.0523 -0.064739,-0.0762 -0.021796,-0.0188 -0.045938,-0.0346 -0.07001,-0.0506 -0.02842,-0.0124 -0.054896,-0.0284 -0.084362,-0.0381 -0.037059,-0.0101 -0.07547,-0.0142 -0.1136522,-0.0174 -0.034711,-0.003 -0.071161,10e-4 -0.1052942,0.009 -0.042444,0.007 -0.083762,0.0157 -0.125583,0.0248 -0.029638,0.0106 -0.05892,0.0203 -0.087237,0.0343 -0.035315,0.0166 -0.070105,0.0341 -0.1053564,0.0509 -0.025799,0.0149 -0.048438,0.034 -0.072197,0.0519 -0.080549,0.0597 -0.1648986,-0.0542 -0.084347,-0.11391 v 0 c 0.031457,-0.0227 0.060847,-0.0484 0.09574,-0.0661 0.035128,-0.0166 0.069733,-0.0339 0.1047469,-0.0507 0.038433,-0.0182 0.078154,-0.0326 0.1188255,-0.0451 0.042908,-0.009 0.085451,-0.0189 0.1288658,-0.0254 0.047893,-0.009 0.097432,-0.0154 0.1460296,-0.0104 0.049181,0.005 0.098737,0.0101 0.1461375,0.0249 0.040477,0.0145 0.078516,0.0346 0.1166085,0.0542 0.033099,0.0223 0.066117,0.0445 0.095176,0.0722 0.022451,0.0248 0.043625,0.0507 0.065035,0.0765 0.02356,0.0262 0.045903,0.0537 0.066745,0.0823 0.022374,0.0298 0.042418,0.0617 0.057765,0.0958 0.022475,0.0372 0.043776,0.0746 0.058256,0.11578 0.0056,0.0302 0.036894,0.0526 0.043159,0.0834 0.018487,0.0328 0.035302,0.0661 0.046859,0.10209 0.015217,0.0383 0.027626,0.0778 0.035318,0.11838 0.00765,0.0416 0.010879,0.084 0.020413,0.12533 0.00234,0.0441 0.012007,0.088 0.00793,0.13219 -0.00193,0.0396 -0.00341,0.0794 0.00113,0.11886 0.00557,0.0497 0.00644,0.0986 -0.0048,0.14769 -0.00722,0.0384 -0.016705,0.0762 -0.028101,0.11355 -0.00398,0.0483 -0.00768,0.0968 -0.015178,0.14482 -0.00882,0.048 -0.021083,0.0956 -0.050287,0.13589 -0.022083,0.0301 -0.0377,0.065 -0.061798,0.0939 -0.023137,0.027 -0.044137,0.0558 -0.067947,0.0823 -0.024474,0.035 -0.05132,0.0693 -0.082964,0.0981 -0.029905,0.0223 -0.056729,0.0489 -0.08924,0.0679 -0.039152,0.0208 -0.079194,0.0366 -0.1240575,0.0393 -0.044834,0.002 -0.089179,-0.004 -0.1340097,-0.006 -0.044509,-0.003 -0.089184,-0.003 -0.1337325,-9.8e-4 -0.050519,0.002 -0.1000077,7.9e-4 -0.1480164,-0.0172 -0.039409,-0.0113 -0.080166,-0.0116 -0.1209517,-0.015 -0.049154,-0.004 -0.09836,-0.009 -0.1470485,-0.0171 -0.04488,-0.008 -0.08905,-0.0187 -0.1331531,-0.03 -0.047182,-0.004 -0.09436,-0.008 -0.141535,-0.0118 -0.046028,-0.004 -0.09205,-0.008 -0.1381586,-0.0107 -0.035413,-0.002 -0.071316,-0.004 -0.1064154,0.003 -0.032848,0.008 -0.065324,0.0182 -0.097401,0.0287 -0.037489,0.0134 -0.076112,0.0234 -0.1152559,0.0306 -0.047022,0.0122 -0.095512,0.0182 -0.1441366,0.0154 -0.04716,-0.008 -0.094048,-0.0188 -0.1353201,-0.0442 -0.034454,-0.021 -0.070011,-0.0388 -0.098307,-0.0686 -0.0228,-0.0224 -0.044818,-0.0456 -0.0667,-0.0688 -0.026423,-0.0211 -0.053569,-0.0401 -0.083155,-0.0569 -0.032681,-0.025 -0.069262,-0.0456 -0.094578,-0.0793 -0.022858,-0.0317 -0.048714,-0.0614 -0.065391,-0.0972 -0.014265,-0.0335 -0.028133,-0.0673 -0.039727,-0.1018 -0.014289,-0.0383 -0.026566,-0.0779 -0.032227,-0.11851 -0.00758,-0.0408 -0.014774,-0.0811 -0.0171,-0.12258 -0.00526,-0.0482 -0.00118,-0.0956 0.00213,-0.14387 0.0013,-0.0391 0.00139,-0.0783 -0.0045,-0.11704 -0.00536,-0.0499 -7.691e-4,-0.0991 0.00431,-0.14895 0.00371,-0.0453 0.00755,-0.0907 0.0096,-0.13619 0.00129,-0.039 0.00139,-0.0781 -0.00453,-0.11693 -0.00542,-0.0499 -9.086e-4,-0.0991 0.00405,-0.14894 0.00381,-0.0473 0.00752,-0.0948 0.011596,-0.14211 0.00445,-0.0489 0.00878,-0.098 0.020225,-0.1458 0.01199,-0.0428 0.030654,-0.0816 0.051224,-0.12073 0.020954,-0.0343 0.045789,-0.067 0.074609,-0.095 0.028169,-0.0334 0.05651,-0.0672 0.090959,-0.0943 0.036173,-0.0327 0.07455,-0.0637 0.1201031,-0.0824 0.044306,-0.0182 0.090177,-0.0258 0.1378982,-0.0289 0.050521,-0.002 0.1006276,0.005 0.1506715,0.0117 0.045879,0.007 0.091237,0.0165 0.1347584,0.0334 0.046331,0.0152 0.097249,0.018 0.1396535,0.0446 0.032938,0.0188 0.068814,0.0327 0.1000302,0.0548 0.031429,0.0208 0.062806,0.0414 0.09272,0.0644 0.032283,0.0281 0.065604,0.0549 0.097312,0.0836 0.04574,0.047 0.097366,0.088 0.1412028,0.13697 0.064812,0.0765 -0.0433,0.16812 -0.1081145,0.0917 z"
       inkscape:connector-curvature="0" />
    <path
       style="fill:#ffffff;fill-opacity:0.74901961;stroke:#ffffff;stroke-width:0.1;stroke-linecap:round;stroke-linejoin:round;stroke-miterlimit:4;stroke-dasharray:none;stroke-dashoffset:0;stroke-opacity:0.74901961"
       id="path910"
       d="m 2.4531807,294.10739 c 0.00793,-0.0628 0.026933,-0.12245 0.047296,-0.18199 0.018424,-0.0431 0.040538,-0.0842 0.067133,-0.1228 0.023149,-0.0371 0.052377,-0.07 0.084193,-0.0999 0.020329,-0.0242 0.041414,-0.0481 0.062194,-0.072 0.024434,-0.0262 0.053345,-0.0477 0.078972,-0.0725 0.024364,-0.0209 0.051035,-0.0394 0.070859,-0.065 0.025328,-0.0302 0.054546,-0.0566 0.082014,-0.0848 0.025212,-0.024 0.05371,-0.0444 0.078787,-0.0687 0.035923,-0.0297 0.076936,-0.0509 0.1216112,-0.0634 0.05241,-0.0102 0.1062345,-0.009 0.1586154,-1.9e-4 0.02671,0.007 0.053259,0.0149 0.080281,0.021 0.097741,0.0222 0.066386,0.1604 -0.031356,0.13824 v 0 c -0.025851,-0.006 -0.05157,-0.0123 -0.076924,-0.0203 -0.030094,-0.008 -0.064065,-0.003 -0.094816,-0.002 -0.022838,0.004 -0.042297,0.0176 -0.06128,0.0305 -0.024344,0.022 -0.049863,0.0426 -0.0744,0.0644 -0.024921,0.0247 -0.050601,0.0486 -0.073477,0.0754 -0.024847,0.0291 -0.052826,0.0548 -0.083111,0.0779 -0.022916,0.021 -0.046956,0.0407 -0.069206,0.0624 -0.024593,0.0278 -0.048186,0.0564 -0.073483,0.0836 -0.02527,0.0211 -0.045201,0.0487 -0.063171,0.076 -0.019615,0.0276 -0.034624,0.0571 -0.049314,0.0876 -0.016606,0.0485 -0.032803,0.0966 -0.04014,0.14772 -0.00823,0.0999 -0.1494885,0.0883 -0.1412628,-0.0116 z"
       inkscape:connector-curvature="0" />
  </g>
</svg>
