<?xml version="1.0" encoding="UTF-8" standalone="no"?>
<!-- Created with Inkscape (http://www.inkscape.org/) -->

<svg
   xmlns:dc="http://purl.org/dc/elements/1.1/"
   xmlns:cc="http://creativecommons.org/ns#"
   xmlns:rdf="http://www.w3.org/1999/02/22-rdf-syntax-ns#"
   xmlns:svg="http://www.w3.org/2000/svg"
   xmlns="http://www.w3.org/2000/svg"
   xmlns:sodipodi="http://sodipodi.sourceforge.net/DTD/sodipodi-0.dtd"
   xmlns:inkscape="http://www.inkscape.org/namespaces/inkscape"
   width="60"
   height="20"
   viewBox="0 0 119.06245 39.6875"
   version="1.1"
   id="svg8"
   sodipodi:docname="worm-large.svg"
   inkscape:version="0.92.2 2405546, 2018-03-11">
  <defs
     id="defs2" />
  <sodipodi:namedview
     id="base"
     pagecolor="#ffffff"
     bordercolor="#666666"
     borderopacity="1.0"
     inkscape:pageopacity="0.0"
     inkscape:pageshadow="2"
     inkscape:zoom="7.9195959"
     inkscape:cx="32.104987"
     inkscape:cy="0.77944808"
     inkscape:document-units="mm"
     inkscape:current-layer="g4990"
     showgrid="false"
     inkscape:window-width="1920"
     inkscape:window-height="1016"
     inkscape:window-x="0"
     inkscape:window-y="27"
     inkscape:window-maximized="1"
     units="px"
     scale-x="7.5"
     inkscape:pagecheckerboard="true" />
  <metadata
     id="metadata5">
    <rdf:RDF>
      <cc:Work
         rdf:about="">
        <dc:format>image/svg+xml</dc:format>
        <dc:type
           rdf:resource="http://purl.org/dc/dcmitype/StillImage" />
        <dc:title />
      </cc:Work>
    </rdf:RDF>
  </metadata>
  <g
     inkscape:label="worms"
     inkscape:groupmode="layer"
     id="layer1"
     style="display:inline"
     transform="translate(0,-291.70834)">
    <g
       id="g4990"
       inkscape:label="large"
       transform="matrix(-1,0,0,1,144.68148,273.54532)"
       style="fill:#ffffff;fill-opacity:0.74901961;stroke:#ffffff;stroke-width:0.74999982;stroke-miterlimit:4;stroke-dasharray:none;stroke-opacity:0.74901961">
      <path
         inkscape:connector-curvature="0"
         id="path901"
         d="m 46.006329,26.877063 c -5.038931,2.370346 -11.459988,5.086239 -12.604382,11.199879 -0.510688,4.762488 4.227907,8.114894 8.246893,9.496775 3.914865,1.590459 8.250226,1.564725 12.20815,2.884117 1.559445,1.857104 -5.062385,-0.536777 -6.683596,-0.519398 -5.764482,-1.054005 -12.633904,-3.16661 -14.783294,-9.278179 -1.6088,-5.260321 3.168356,-9.571196 7.738908,-11.041927 1.973832,-0.880503 4.00145,-1.657238 5.877321,-2.741267 z"
         style="fill:#ffffff;fill-opacity:0.74901961;stroke:#ffffff;stroke-width:0.74999982;stroke-linecap:round;stroke-linejoin:round;stroke-miterlimit:4;stroke-dasharray:none;stroke-dashoffset:0;stroke-opacity:0.74901961" />
      <path
         inkscape:connector-curvature="0"
         id="path903"
         d="m 53.85699,50.457834 c -6.953771,-4.852156 -7.81626,-14.475116 -6.187571,-22.144716 2.726995,-4.624563 0.80963,3.081424 0.716167,4.946426 -0.08175,6.093153 1.332102,12.514614 5.471404,17.19829 z"
         style="fill:#ffffff;fill-opacity:0.74901961;stroke:#ffffff;stroke-width:0.74999982;stroke-linecap:round;stroke-linejoin:round;stroke-miterlimit:4;stroke-dasharray:none;stroke-dashoffset:0;stroke-opacity:0.74901961" />
      <path
         inkscape:connector-curvature="0"
         id="path913"
         d="m 40.334627,27.622436 c 4.831097,-3.197722 10.025165,-7.964324 16.281604,-6.653231 3.889287,0.931488 5.405642,5.173115 7.338167,8.238017 2.031962,4.550286 5.033542,8.717251 6.249908,13.590086 1.101584,4.210303 0.248358,10.080136 -4.523071,11.552426 -2.270212,1.77535 -9.372061,0.798299 -8.419461,-2.162246 2.39562,1.596417 6.461206,2.674128 8.770636,-0.357853 2.699464,-2.511015 2.836641,-6.576567 1.211396,-9.709523 -1.985141,-4.796118 -4.255011,-9.492262 -6.54076,-14.13984 -2.963048,-4.766087 -10.288894,-7.858461 -14.950034,-3.634931 -1.431939,1.797771 -2.873753,3.451165 -5.418385,3.277097 z"
         style="fill:#ffffff;fill-opacity:0.74901961;stroke:#ffffff;stroke-width:0.74999982;stroke-linecap:round;stroke-linejoin:round;stroke-miterlimit:4;stroke-dasharray:none;stroke-dashoffset:0;stroke-opacity:0.74901961" />
      <path
         inkscape:connector-curvature="0"
         id="path915"
         d="m 62.360516,23.857985 c 5.567815,-0.789986 12.457311,-1.345098 16.63013,3.200776 2.406896,3.399892 2.623229,7.82528 3.322802,11.819876 0.535545,4.391893 -0.690113,9.629266 -4.69964,12.012076 -1.556766,1.248397 -8.003877,0.121539 -2.909973,-0.48752 3.94767,-0.913356 5.215502,-5.711569 4.87928,-9.301804 C 79.16882,37.4198 78.645245,33.700345 77.573598,30.152408 76.303405,25.41236 71.216609,24.517291 67.041193,24.91431 c -1.592087,0.02964 -3.429632,0.11607 -4.680676,-1.056327 z"
         style="fill:#ffffff;fill-opacity:0.74901961;stroke:#ffffff;stroke-width:0.74999982;stroke-linecap:round;stroke-linejoin:round;stroke-miterlimit:4;stroke-dasharray:none;stroke-dashoffset:0;stroke-opacity:0.74901961" />
      <path
         inkscape:connector-curvature="0"
         id="path917"
         d="m 76.4147,23.720184 c 5.569633,-4.94424 14.505884,-1.298622 17.578322,4.760662 3.447816,6.997382 0.569132,15.190748 -3.252343,21.391164 -1.208958,2.669437 -9.389126,3.436062 -7.383017,0.727795 3.943003,1.543844 6.855539,-2.701278 7.719507,-6.02013 1.009479,-5.237463 2.346531,-11.17263 -0.305064,-16.1526 C 87.845399,24.054249 81.390426,20.529821 76.4147,23.720184 Z"
         style="fill:#ffffff;fill-opacity:0.74901961;stroke:#ffffff;stroke-width:0.74999982;stroke-linecap:round;stroke-linejoin:round;stroke-miterlimit:4;stroke-dasharray:none;stroke-dashoffset:0;stroke-opacity:0.74901961" />
      <path
         inkscape:connector-curvature="0"
         id="path919"
         d="m 92.499185,24.053945 c 5.639987,-0.586204 12.232435,-2.73824 17.188945,1.126758 2.81662,2.53063 2.66724,6.861636 2.63024,10.369856 -0.52019,5.557425 -2.17801,11.923115 -7.56304,14.684096 -3.43492,2.140826 -9.183049,3.103194 -11.57642,-1.021302 4.306862,1.718347 10.61709,2.36075 13.41006,-2.208158 2.54465,-5.692853 4.64102,-12.532369 2.13218,-18.59292 -2.00946,-5.363318 -8.39253,-4.224202 -12.86606,-3.76531 -1.14037,0.0086 -2.301564,-0.135421 -3.355906,-0.593018 z"
         style="fill:#ffffff;fill-opacity:0.74901961;stroke:#ffffff;stroke-width:0.74999982;stroke-linecap:round;stroke-linejoin:round;stroke-miterlimit:4;stroke-dasharray:none;stroke-dashoffset:0;stroke-opacity:0.74901961" />
      <path
         inkscape:connector-curvature="0"
         id="path923"
         d="m 111.08413,24.496872 c 7.6171,-1.629345 14.65938,6.585152 12.90991,13.912373 0.3723,6.218513 -4.33834,13.041449 -10.89537,13.20698 -3.37816,-0.274646 -1.3219,-3.226059 0.94149,-1.28617 4.45736,0.04736 6.48527,-4.758856 6.68763,-8.55326 -0.102,-3.664249 0.9209,-7.542955 -0.42344,-11.016411 -1.86032,-3.360418 -5.84791,-4.363373 -9.35474,-4.80601 -0.81684,-0.292465 -0.68057,-1.344397 0.1345,-1.457501 z"
         style="fill:#ffffff;fill-opacity:0.74901961;stroke:#ffffff;stroke-width:0.74999982;stroke-linecap:round;stroke-linejoin:round;stroke-miterlimit:4;stroke-dasharray:none;stroke-dashoffset:0;stroke-opacity:0.74901961" />
      <path
         inkscape:connector-curvature="0"
         id="path925"
         d="m 121.68647,29.415855 c 5.89388,-3.386523 15.44325,-0.256615 16.47878,6.937947 0.69467,5.919712 -4.96868,10.140812 -10.22814,11.10305 -1.22741,0.304029 -5.21812,0.752264 -1.69675,0.185057 4.563,-0.74422 8.47037,-4.223145 9.17353,-8.841878 0.66475,-4.473357 -3.07975,-9.086907 -7.6874,-8.973704 -1.99266,-0.349276 -4.02171,-0.403525 -6.04002,-0.410472 z"
         style="fill:#ffffff;fill-opacity:0.74901961;stroke:#ffffff;stroke-width:0.74999982;stroke-linecap:round;stroke-linejoin:round;stroke-miterlimit:4;stroke-dasharray:none;stroke-dashoffset:0;stroke-opacity:0.74901961" />
    </g>
  </g>
</svg>
