<?xml version="1.0" encoding="UTF-8" standalone="no"?>
<!-- Created with Inkscape (http://www.inkscape.org/) -->

<svg
   xmlns:dc="http://purl.org/dc/elements/1.1/"
   xmlns:cc="http://creativecommons.org/ns#"
   xmlns:rdf="http://www.w3.org/1999/02/22-rdf-syntax-ns#"
   xmlns:svg="http://www.w3.org/2000/svg"
   xmlns="http://www.w3.org/2000/svg"
   xmlns:sodipodi="http://sodipodi.sourceforge.net/DTD/sodipodi-0.dtd"
   xmlns:inkscape="http://www.inkscape.org/namespaces/inkscape"
   width="20"
   height="20"
   viewBox="0 0 5.2916667 5.2916665"
   version="1.1"
   id="svg8"
   sodipodi:docname="food-1.svg"
   inkscape:version="0.92.2 2405546, 2018-03-11">
  <defs
     id="defs2" />
  <sodipodi:namedview
     id="base"
     pagecolor="#ffffff"
     bordercolor="#666666"
     borderopacity="1.0"
     inkscape:pageopacity="0.0"
     inkscape:pageshadow="2"
     inkscape:zoom="22.4"
     inkscape:cx="-4.0730149"
     inkscape:cy="8.1899841"
     inkscape:document-units="mm"
     inkscape:current-layer="layer1"
     showgrid="false"
     inkscape:window-width="1920"
     inkscape:window-height="1016"
     inkscape:window-x="0"
     inkscape:window-y="27"
     inkscape:window-maximized="1"
     units="px"
     inkscape:pagecheckerboard="true" />
  <metadata
     id="metadata5">
    <rdf:RDF>
      <cc:Work
         rdf:about="">
        <dc:format>image/svg+xml</dc:format>
        <dc:type
           rdf:resource="http://purl.org/dc/dcmitype/StillImage" />
        <dc:title />
      </cc:Work>
    </rdf:RDF>
  </metadata>
  <g
     inkscape:label="food"
     inkscape:groupmode="layer"
     id="layer1"
     style="display:inline"
     transform="translate(0,-291.70833)">
    <path
       style="fill:#ffffff;fill-opacity:0.74901961;stroke:#ffffff;stroke-width:0.1;stroke-linecap:round;stroke-linejoin:round;stroke-miterlimit:4;stroke-dasharray:none;stroke-dashoffset:0;stroke-opacity:0.74901961"
       id="path908"
       d="m 2.3453563,294.26258 c -0.046244,-0.0415 -0.097055,-0.0774 -0.1442668,-0.11777 -0.03148,-0.0229 -0.063255,-0.0454 -0.094856,-0.0682 -0.026719,-0.0168 -0.054422,-0.0316 -0.082199,-0.0467 -0.029075,-0.0172 -0.060653,-0.0276 -0.091696,-0.0403 -0.036799,-0.0164 -0.077937,-0.017 -0.1169661,-0.0248 -0.038465,-0.0112 -0.077887,-0.0166 -0.1177235,-0.0194 -0.040073,0.001 -0.082224,-0.008 -0.1218373,-2e-4 -0.026743,0.009 -0.062358,0.005 -0.085233,0.0236 -0.030195,0.0156 -0.05498,0.0389 -0.077387,0.064 -0.027754,0.0256 -0.049942,0.0564 -0.071432,0.0872 -0.020208,0.025 -0.041823,0.0509 -0.054705,0.0807 -0.011842,0.0294 -0.023997,0.0575 -0.029438,0.0888 -0.00541,0.0405 -0.00546,0.0815 -0.0058,0.12225 -1.705e-4,0.047 2.16e-5,0.0941 1.114e-4,0.14109 4.313e-4,0.0408 -0.00278,0.0814 0.00549,0.12151 0.010433,0.0448 0.014295,0.0907 0.016635,0.13659 0.00185,0.0478 0.00176,0.0957 0.00178,0.14356 3.387e-4,0.0408 -0.00297,0.0814 0.00526,0.1215 0.010384,0.0448 0.014241,0.0907 0.016578,0.13654 0.00202,0.0413 -0.00121,0.0825 0.00716,0.12307 0.00489,0.038 0.014637,0.0741 0.024766,0.11086 0.00661,0.0324 0.01948,0.0629 0.033457,0.0927 0.013108,0.0316 0.028992,0.062 0.045004,0.0923 0.015817,0.0234 0.035747,0.0433 0.054454,0.0643 0.020167,0.018 0.044682,0.0298 0.067837,0.0436 0.032782,0.0147 0.063003,0.0333 0.092823,0.0532 0.028718,0.0232 0.055632,0.0484 0.083991,0.072 0.02168,0.0202 0.046948,0.0289 0.073112,0.0409 0.02797,0.0145 0.059085,0.0174 0.089955,0.0199 0.028638,-0.005 0.056393,-0.0101 0.083724,-0.0197 0.032325,-0.0113 0.067864,-0.0173 0.098051,-0.0341 0.035993,-0.0155 0.072667,-0.0297 0.1097032,-0.0427 0.047665,-0.0149 0.097708,-0.0173 0.1472502,-0.019 0.047844,-0.001 0.095705,-8e-4 0.1435572,-7.2e-4 0.04728,1.2e-4 0.094561,1.7e-4 0.141841,2e-4 0.049688,0.005 0.098586,0.0151 0.1483592,0.0197 0.045081,0.004 0.090329,0.004 0.1355209,0.004 0.049907,-7.9e-4 0.099095,-10e-4 0.1482553,0.008 0.035255,0.0114 0.068076,0.008 0.1038151,0.004 0.048641,-0.007 0.097684,-0.009 0.1467295,-0.011 0.036696,-0.008 0.079859,0.008 0.115585,-0.003 0.026196,-0.003 0.045486,-0.0151 0.066782,-0.0287 0.022463,-0.0188 0.042665,-0.0401 0.064112,-0.0601 0.017116,-0.0223 0.033636,-0.0458 0.04739,-0.0705 0.022661,-0.0327 0.045218,-0.0652 0.067581,-0.0981 0.017235,-0.0283 0.031039,-0.0584 0.046877,-0.0875 0.015756,-0.0253 0.018645,-0.0544 0.021283,-0.0834 0.00289,-0.0439 0.00259,-0.088 0.00259,-0.132 0.00468,-0.0436 0.015052,-0.0862 0.019423,-0.1299 0.00618,-0.0364 0.00156,-0.0704 -0.00542,-0.10586 -0.00931,-0.0464 -0.011843,-0.0937 -0.013459,-0.14089 -6.615e-4,-0.0393 -0.012007,-0.0775 -0.017489,-0.11642 -0.014441,-0.0328 -0.014975,-0.0698 -0.026376,-0.10326 -0.00987,-0.0299 -0.018169,-0.0618 -0.034471,-0.089 -0.012041,-0.0303 -0.028498,-0.0571 -0.046669,-0.0838 -0.018539,-0.0344 -0.042879,-0.0641 -0.060817,-0.0988 -0.013814,-0.032 -0.033621,-0.0597 -0.053975,-0.0876 -0.017116,-0.0265 -0.032256,-0.0557 -0.055038,-0.078 -0.020913,-0.0233 -0.041562,-0.0476 -0.065186,-0.0684 -0.023903,-0.0231 -0.045754,-0.0487 -0.070772,-0.0706 -0.02327,-0.017 -0.048622,-0.0307 -0.073928,-0.0447 -0.02934,-0.01 -0.057042,-0.0238 -0.087209,-0.0311 -0.037761,-0.007 -0.076384,-0.008 -0.1146958,-0.008 -0.034819,1.2e-4 -0.070825,0.007 -0.1042342,0.0172 -0.041764,0.01 -0.082193,0.0225 -0.1231257,0.035 -0.028668,0.013 -0.057052,0.0251 -0.084131,0.0413 -0.033837,0.0194 -0.067073,0.0397 -0.1008212,0.0594 -0.024486,0.017 -0.045481,0.0379 -0.06769,0.0577 -0.075378,0.0661 -0.1687922,-0.0405 -0.093412,-0.1066 v 0 c 0.029488,-0.0252 0.056672,-0.0532 0.089995,-0.0737 0.033649,-0.0194 0.066716,-0.0395 0.1002343,-0.0591 0.036809,-0.0213 0.075215,-0.0389 0.1147231,-0.0547 0.042016,-0.0126 0.083607,-0.0259 0.1263455,-0.0359 0.047026,-0.0125 0.095843,-0.0233 0.1446792,-0.0224 0.049422,9e-4 0.099236,0.002 0.1476864,0.0128 0.041528,0.0111 0.081088,0.028 0.120668,0.0445 0.034817,0.0195 0.069544,0.0389 0.1007771,0.0641 0.024413,0.0229 0.047643,0.047 0.071094,0.0709 0.025633,0.0242 0.05016,0.0498 0.073271,0.0765 0.024747,0.0279 0.047338,0.058 0.06543,0.0907 0.02545,0.0352 0.049755,0.0708 0.067561,0.1106 0.00806,0.0296 0.041087,0.0494 0.04986,0.0796 0.021119,0.0312 0.04061,0.063 0.05508,0.0979 0.018307,0.0369 0.033921,0.0753 0.044915,0.11508 0.011036,0.0408 0.017735,0.0828 0.030631,0.12323 0.00596,0.0438 0.019188,0.0867 0.018754,0.1311 0.00132,0.0396 0.00312,0.0794 0.010882,0.11836 0.00963,0.0491 0.014507,0.0977 0.00734,0.14759 -0.00404,0.0389 -0.010396,0.0773 -0.018687,0.11547 4e-6,0.0485 2.91e-4,0.0971 -0.00324,0.14558 -0.00485,0.0486 -0.013166,0.097 -0.038964,0.13956 -0.019539,0.0318 -0.032236,0.0679 -0.053887,0.0986 -0.020844,0.0288 -0.039411,0.0592 -0.060963,0.0876 -0.021518,0.0369 -0.045457,0.0733 -0.07463,0.10461 -0.027972,0.0247 -0.052523,0.0534 -0.083365,0.075 -0.037316,0.0239 -0.075921,0.043 -0.1204175,0.0493 -0.044492,0.006 -0.089234,0.003 -0.1340516,0.005 -0.044577,10e-4 -0.089157,0.004 -0.1333617,0.01 -0.050196,0.006 -0.099605,0.009 -0.1489292,-0.005 -0.040201,-0.008 -0.080849,-0.005 -0.1217729,-0.005 -0.049344,-2.9e-4 -0.098747,-6.6e-4 -0.1479581,-0.005 -0.045361,-0.004 -0.090282,-0.0113 -0.1351686,-0.019 -0.047344,-3e-5 -0.094687,-9e-5 -0.1420306,-2e-4 -0.046191,-9e-5 -0.09239,-3.4e-4 -0.1385737,6.4e-4 -0.035451,0.001 -0.071393,0.002 -0.1058368,0.0114 -0.032078,0.0107 -0.06361,0.0235 -0.094717,0.0366 -0.036265,0.0164 -0.073932,0.0296 -0.1123519,0.04 -0.045863,0.016 -0.093694,0.026 -0.1423845,0.0272 -0.047649,-0.004 -0.095272,-0.011 -0.1384877,-0.0329 -0.036061,-0.0181 -0.072957,-0.0329 -0.1036059,-0.0603 -0.024565,-0.0205 -0.048412,-0.0418 -0.072122,-0.0631 -0.028069,-0.0189 -0.056682,-0.0356 -0.087546,-0.0499 -0.03462,-0.0222 -0.072774,-0.0398 -0.1007703,-0.0713 -0.025381,-0.0297 -0.05359,-0.0572 -0.073148,-0.0915 -0.016965,-0.0322 -0.033565,-0.0648 -0.047949,-0.0982 -0.017385,-0.037 -0.032865,-0.0754 -0.041845,-0.11546 -0.010897,-0.04 -0.021379,-0.0796 -0.027103,-0.12076 -0.0092,-0.0476 -0.00902,-0.0952 -0.00969,-0.14356 -0.00192,-0.0391 -0.00504,-0.0781 -0.01409,-0.11628 -0.00944,-0.0493 -0.0089,-0.0987 -0.00793,-0.1488 -1.98e-5,-0.0455 8.18e-5,-0.091 -0.00161,-0.13652 -0.00192,-0.039 -0.00503,-0.078 -0.014114,-0.11616 -0.0095,-0.0493 -0.00904,-0.0987 -0.00819,-0.14877 -9.07e-5,-0.0475 -2.857e-4,-0.0951 -1.064e-4,-0.14258 4.259e-4,-0.0491 7.064e-4,-0.0984 0.00819,-0.14697 0.00844,-0.0436 0.023857,-0.0838 0.041142,-0.12453 0.018069,-0.0359 0.040138,-0.0705 0.066558,-0.10083 0.025332,-0.0356 0.050805,-0.0716 0.082912,-0.10145 0.033364,-0.0356 0.06907,-0.0696 0.1129331,-0.092 0.042661,-0.0218 0.087756,-0.0331 0.1350626,-0.0401 0.050198,-0.006 0.1007212,-0.003 0.151124,-7e-4 0.046281,0.003 0.092287,0.009 0.1370428,0.0222 0.047419,0.0113 0.098402,0.01 0.142844,0.033 0.034367,0.016 0.071262,0.0269 0.10419,0.0464 0.033034,0.0182 0.065992,0.0361 0.097695,0.0566 0.034476,0.0253 0.069886,0.0493 0.1038427,0.0753 0.049444,0.0431 0.1042591,0.0797 0.1519684,0.12492 0.07087,0.0709 -0.029356,0.1711 -0.1002261,0.10023 z"
       inkscape:connector-curvature="0" />
    <path
       style="fill:#ffffff;fill-opacity:0.74901961;stroke:#ffffff;stroke-width:0.1;stroke-linecap:round;stroke-linejoin:round;stroke-miterlimit:4;stroke-dasharray:none;stroke-dashoffset:0;stroke-opacity:0.74901961"
       id="path910"
       d="m 2.4095982,294.11232 c 0.00275,-0.0632 0.016792,-0.12424 0.0322,-0.18525 0.014822,-0.0445 0.033494,-0.0872 0.056827,-0.1279 0.020024,-0.0389 0.046452,-0.0741 0.075709,-0.10648 0.018273,-0.0258 0.037329,-0.0513 0.056072,-0.0769 0.022203,-0.0281 0.049252,-0.0519 0.072758,-0.0787 0.022569,-0.0228 0.047625,-0.0435 0.065285,-0.0706 0.022762,-0.0322 0.049715,-0.0609 0.074781,-0.0912 0.023156,-0.026 0.049881,-0.0487 0.072885,-0.0749 0.033368,-0.0325 0.072502,-0.057 0.1159946,-0.0732 0.051393,-0.0145 0.1051118,-0.018 0.1580653,-0.0132 0.027212,0.005 0.054304,0.0105 0.08173,0.0143 0.099233,0.0141 0.079327,0.15441 -0.019905,0.14034 v 0 c -0.026268,-0.004 -0.052403,-0.008 -0.078329,-0.0139 -0.03069,-0.006 -0.064117,0.002 -0.094643,0.006 -0.022421,0.006 -0.040711,0.021 -0.058572,0.0354 -0.022458,0.0239 -0.046194,0.0466 -0.068862,0.0703 -0.022807,0.0267 -0.046441,0.0526 -0.067039,0.0812 -0.022378,0.031 -0.048154,0.0589 -0.076433,0.0845 -0.021116,0.0228 -0.043458,0.0444 -0.063849,0.0679 -0.02223,0.0297 -0.043391,0.0602 -0.066378,0.0893 -0.023453,0.0231 -0.041055,0.0522 -0.056722,0.0809 -0.017285,0.0291 -0.029816,0.0598 -0.041954,0.0914 -0.012569,0.0497 -0.024761,0.099 -0.02788,0.15052 0,0.10022 -0.1417411,0.10022 -0.1417411,0 z"
       inkscape:connector-curvature="0" />
    <path
       style="fill:#ffffff;fill-opacity:0.74901961;stroke:#ffffff;stroke-width:0.1;stroke-linecap:round;stroke-linejoin:round;stroke-miterlimit:4;stroke-dasharray:none;stroke-dashoffset:0;stroke-opacity:0.74901961"
       id="path914"
       d="m 0.80108591,293.72074 c -0.004458,-0.0612 -0.0203946,-0.12042 -0.0318401,-0.1805 -0.0186808,-0.0985 0.12057645,-0.12489 0.13925725,-0.0264 v 0 c 0.0117438,0.0622 0.0281753,0.12352 0.0328994,0.18688 0.014174,0.0992 -0.12614237,0.11926 -0.14031647,0.02 z"
       inkscape:connector-curvature="0" />
    <path
       style="fill:#ffffff;fill-opacity:0.74901961;stroke:#ffffff;stroke-width:0.1;stroke-linecap:round;stroke-linejoin:round;stroke-miterlimit:4;stroke-dasharray:none;stroke-dashoffset:0;stroke-opacity:0.74901961"
       id="path922"
       d="m 3.7311128,293.80903 c -0.045394,-0.022 -0.091118,-0.0438 -0.1356476,-0.0676 -0.08817,-0.0477 -0.02077,-0.17235 0.067399,-0.12469 v 0 c 0.042905,0.0236 0.087717,0.044 0.1316369,0.0656 0.089645,0.0448 0.026257,0.1716 -0.063389,0.12677 z"
       inkscape:connector-curvature="0" />
    <path
       style="fill:#ffffff;fill-opacity:0.74901961;stroke:#ffffff;stroke-width:0.1;stroke-linecap:round;stroke-linejoin:round;stroke-miterlimit:4;stroke-dasharray:none;stroke-dashoffset:0;stroke-opacity:0.74901961"
       id="path924"
       d="m 3.0716561,292.24095 c -0.031238,-0.0491 -0.055511,-0.10185 -0.074284,-0.15676 -0.031897,-0.095 0.1024739,-0.14012 0.1343713,-0.0451 v 0 c 0.01415,0.0433 0.033947,0.0845 0.057848,0.12325 0.055596,0.0834 -0.06234,0.16201 -0.1179356,0.0786 z"
       inkscape:connector-curvature="0" />
    <path
       style="fill:#ffffff;fill-opacity:0.74901961;stroke:#ffffff;stroke-width:0.1;stroke-linecap:round;stroke-linejoin:round;stroke-miterlimit:4;stroke-dasharray:none;stroke-dashoffset:0;stroke-opacity:0.74901961"
       id="path926"
       d="m 2.078869,292.00983 c -7.057e-4,-0.0561 0.00654,-0.11224 0.019037,-0.1668 0.023532,-0.0974 0.1613108,-0.0642 0.1377789,0.0333 v 0 c -0.0114,0.0432 -0.014856,0.089 -0.015075,0.13352 0,0.10022 -0.1417411,0.10022 -0.141741,0 z"
       inkscape:connector-curvature="0" />
  </g>
</svg>
