<?xml version="1.0" encoding="UTF-8" standalone="no"?>
<!-- Created with Inkscape (http://www.inkscape.org/) -->

<svg
   xmlns:dc="http://purl.org/dc/elements/1.1/"
   xmlns:cc="http://creativecommons.org/ns#"
   xmlns:rdf="http://www.w3.org/1999/02/22-rdf-syntax-ns#"
   xmlns:svg="http://www.w3.org/2000/svg"
   xmlns="http://www.w3.org/2000/svg"
   xmlns:sodipodi="http://sodipodi.sourceforge.net/DTD/sodipodi-0.dtd"
   xmlns:inkscape="http://www.inkscape.org/namespaces/inkscape"
   width="20"
   height="20"
   viewBox="0 0 5.2916667 5.2916665"
   version="1.1"
   id="svg8"
   sodipodi:docname="food-2.svg"
   inkscape:version="0.92.2 2405546, 2018-03-11">
  <defs
     id="defs2" />
  <sodipodi:namedview
     id="base"
     pagecolor="#ffffff"
     bordercolor="#666666"
     borderopacity="1.0"
     inkscape:pageopacity="0.0"
     inkscape:pageshadow="2"
     inkscape:zoom="22.4"
     inkscape:cx="-0.026999857"
     inkscape:cy="9.0914347"
     inkscape:document-units="mm"
     inkscape:current-layer="layer1"
     showgrid="false"
     inkscape:window-width="1920"
     inkscape:window-height="1016"
     inkscape:window-x="0"
     inkscape:window-y="27"
     inkscape:window-maximized="1"
     units="px"
     inkscape:pagecheckerboard="true" />
  <metadata
     id="metadata5">
    <rdf:RDF>
      <cc:Work
         rdf:about="">
        <dc:format>image/svg+xml</dc:format>
        <dc:type
           rdf:resource="http://purl.org/dc/dcmitype/StillImage" />
        <dc:title />
      </cc:Work>
    </rdf:RDF>
  </metadata>
  <g
     inkscape:label="food"
     inkscape:groupmode="layer"
     id="layer1"
     style="display:inline"
     transform="translate(0,-291.70833)">
    <path
       style="fill:#ffffff;fill-opacity:0.74901961;stroke:#ffffff;stroke-width:0.1;stroke-linecap:round;stroke-linejoin:round;stroke-miterlimit:4;stroke-dasharray:none;stroke-dashoffset:0;stroke-opacity:0.74901961"
       id="path908"
       d="m 2.3176986,294.27449 c -0.049202,-0.038 -0.1025418,-0.07 -0.1526248,-0.10672 -0.033096,-0.0205 -0.066456,-0.0406 -0.099665,-0.061 -0.027894,-0.0148 -0.056621,-0.0275 -0.085444,-0.0405 -0.030273,-0.015 -0.062537,-0.023 -0.094439,-0.0334 -0.037917,-0.0136 -0.078985,-0.0111 -0.1184864,-0.016 -0.039191,-0.008 -0.078906,-0.0108 -0.1188402,-0.0106 -0.039888,0.004 -0.082591,-0.002 -0.1215149,0.009 -0.026,0.011 -0.061813,0.01 -0.083242,0.0299 -0.028951,0.0178 -0.051935,0.0429 -0.072414,0.0696 -0.025774,0.0276 -0.04561,0.06 -0.06475,0.0923 -0.018293,0.0264 -0.037922,0.0539 -0.048553,0.0845 -0.00962,0.0302 -0.019655,0.0591 -0.022753,0.0908 -0.00238,0.0408 6.155e-4,0.0817 0.00331,0.12234 0.00332,0.0469 0.00702,0.0938 0.010603,0.14069 0.00346,0.0406 0.00328,0.0814 0.01451,0.12077 0.013735,0.0439 0.021,0.0894 0.026746,0.13497 0.0054,0.0475 0.00887,0.0953 0.01245,0.14303 0.00337,0.0407 0.00309,0.0814 0.01428,0.12077 0.013687,0.0439 0.020946,0.0894 0.026685,0.13493 0.00509,0.041 0.00493,0.0824 0.016292,0.1222 0.0077,0.0375 0.020107,0.0728 0.032941,0.10871 0.009,0.0318 0.024103,0.0613 0.040258,0.09 0.015422,0.0305 0.033522,0.0597 0.051743,0.0887 0.017513,0.0222 0.038868,0.0405 0.059085,0.0601 0.02145,0.0165 0.046774,0.0264 0.070891,0.0384 0.033784,0.0122 0.065305,0.0285 0.096522,0.0462 0.030364,0.021 0.059077,0.0441 0.089112,0.0656 0.023122,0.0185 0.048967,0.0253 0.075951,0.0353 0.028971,0.0124 0.060215,0.013 0.091186,0.0131 0.028187,-0.007 0.055486,-0.0143 0.082027,-0.0259 0.031395,-0.0137 0.06639,-0.0223 0.095244,-0.0413 0.034741,-0.0181 0.070257,-0.035 0.1062243,-0.0507 0.046425,-0.0184 0.096151,-0.0245 0.1454297,-0.0299 0.047637,-0.005 0.095381,-0.008 0.1431062,-0.0114 0.047158,-0.003 0.094312,-0.007 0.1414632,-0.0104 0.049922,10e-4 0.099436,0.008 0.1494133,0.009 0.045254,6.4e-4 0.090376,-0.003 0.1354432,-0.006 0.04971,-0.005 0.098746,-0.008 0.1484397,-0.003 0.036005,0.009 0.068482,0.003 0.1038251,-0.004 0.047986,-0.0106 0.096744,-0.0162 0.1455053,-0.0219 0.036,-0.0107 0.080233,0.002 0.1150419,-0.0116 0.0259,-0.005 0.044237,-0.0184 0.064463,-0.0336 0.021003,-0.0204 0.039565,-0.0432 0.059465,-0.0647 0.01541,-0.0235 0.030137,-0.0482 0.042016,-0.0738 0.020167,-0.0343 0.040245,-0.0684 0.060099,-0.10285 0.015083,-0.0295 0.02661,-0.0605 0.040241,-0.0907 0.013831,-0.0264 0.014548,-0.0556 0.015022,-0.0848 -3.824e-4,-0.044 -0.00396,-0.0879 -0.00723,-0.13182 0.00143,-0.0438 0.0086,-0.0871 0.00971,-0.13099 0.00346,-0.0368 -0.00368,-0.0703 -0.013277,-0.10516 -0.012735,-0.0456 -0.018778,-0.0926 -0.023898,-0.1395 -0.00358,-0.0391 -0.017737,-0.0764 -0.026098,-0.1148 -0.01684,-0.0316 -0.020124,-0.0685 -0.033981,-0.10101 -0.012066,-0.0291 -0.022714,-0.0603 -0.040994,-0.0862 -0.014261,-0.0293 -0.032665,-0.0548 -0.052771,-0.0801 -0.021046,-0.0329 -0.047527,-0.0607 -0.067996,-0.094 -0.016155,-0.0309 -0.037967,-0.057 -0.060339,-0.0833 -0.019039,-0.0251 -0.036309,-0.0532 -0.060686,-0.0737 -0.022588,-0.0217 -0.044986,-0.0444 -0.070092,-0.0634 -0.025554,-0.0213 -0.049249,-0.0452 -0.075826,-0.0651 -0.02447,-0.0152 -0.05077,-0.027 -0.077047,-0.0391 -0.030002,-0.008 -0.058654,-0.0195 -0.08928,-0.0245 -0.038177,-0.004 -0.076767,-0.002 -0.1149731,5.5e-4 -0.034714,0.003 -0.070108,0.0122 -0.1026666,0.0249 -0.040905,0.0131 -0.080292,0.0285 -0.1201822,0.0441 -0.027622,0.0151 -0.055028,0.0293 -0.080827,0.0474 -0.032301,0.0219 -0.063935,0.0446 -0.096125,0.0667 -0.023154,0.0188 -0.042537,0.0412 -0.063212,0.0626 -0.070254,0.0715 -0.1713365,-0.0278 -0.1010802,-0.0994 v 0 c 0.027532,-0.0273 0.052559,-0.0573 0.084265,-0.0802 0.032113,-0.0218 0.063594,-0.0444 0.095562,-0.0664 0.035123,-0.024 0.072114,-0.0444 0.1103379,-0.0631 0.040963,-0.0157 0.08145,-0.032 0.1233262,-0.0452 0.045966,-0.016 0.093845,-0.0304 0.1426129,-0.0331 0.049352,-0.003 0.09911,-0.005 0.1482294,0.002 0.042238,0.008 0.082946,0.0219 0.1236429,0.0354 0.036171,0.0169 0.072244,0.0336 0.1052647,0.0564 0.026048,0.021 0.051006,0.0433 0.076169,0.0654 0.027362,0.0222 0.053724,0.0459 0.078757,0.0708 0.026753,0.026 0.05152,0.0543 0.071993,0.0856 0.027997,0.0332 0.054882,0.0669 0.075598,0.10527 0.010239,0.0289 0.044647,0.0462 0.055641,0.0757 0.02338,0.0295 0.045182,0.0598 0.062207,0.0935 0.021,0.0354 0.039426,0.0726 0.053348,0.11142 0.014039,0.0399 0.023843,0.0812 0.03971,0.12061 0.0092,0.0432 0.025582,0.085 0.028451,0.12935 0.00426,0.0394 0.00902,0.0789 0.019653,0.11722 0.013254,0.0482 0.021732,0.0964 0.018295,0.14663 -0.00114,0.0391 -0.00462,0.0779 -0.010049,0.11654 0.00361,0.0484 0.00751,0.0968 0.00759,0.14542 -0.00122,0.0488 -0.00592,0.0977 -0.028478,0.14207 -0.01712,0.0332 -0.027098,0.0701 -0.046406,0.10234 -0.018645,0.0303 -0.0349,0.062 -0.05428,0.0919 -0.018714,0.0384 -0.03988,0.0765 -0.066644,0.10987 -0.026058,0.0267 -0.048407,0.0572 -0.077557,0.081 -0.035436,0.0266 -0.072513,0.0485 -0.1164182,0.0581 -0.043923,0.009 -0.088764,0.01 -0.1333086,0.0149 -0.044379,0.004 -0.088613,0.0106 -0.1322489,0.0199 -0.049611,0.01 -0.09866,0.0164 -0.1488887,0.006 -0.040685,-0.005 -0.080997,0.001 -0.1218075,0.004 -0.049229,0.003 -0.098523,0.007 -0.1479203,0.006 -0.045533,-6.1e-4 -0.090872,-0.005 -0.1362072,-0.009 -0.047215,0.003 -0.094432,0.007 -0.1416523,0.0104 -0.04607,0.003 -0.09216,0.007 -0.1381424,0.0109 -0.035278,0.004 -0.071047,0.007 -0.1046961,0.0192 -0.031194,0.0131 -0.061686,0.0282 -0.091733,0.0435 -0.034945,0.019 -0.071526,0.035 -0.1090664,0.0482 -0.044546,0.0194 -0.091501,0.0329 -0.1399677,0.0377 -0.047815,-4.5e-4 -0.095826,-0.004 -0.1405508,-0.0225 -0.037307,-0.0154 -0.075201,-0.0274 -0.107803,-0.0524 -0.026021,-0.0186 -0.051386,-0.0381 -0.076614,-0.0576 -0.029397,-0.0168 -0.059172,-0.0313 -0.091014,-0.0433 -0.036175,-0.0196 -0.075532,-0.0343 -0.1057933,-0.0636 -0.027519,-0.0277 -0.057695,-0.0531 -0.079749,-0.0858 -0.019313,-0.0309 -0.038291,-0.0621 -0.055119,-0.0944 -0.020088,-0.0356 -0.038381,-0.0727 -0.050315,-0.11203 -0.013841,-0.0391 -0.027239,-0.0778 -0.036008,-0.11841 -0.012714,-0.0468 -0.016074,-0.0943 -0.020338,-0.14244 -0.00482,-0.0389 -0.010834,-0.0775 -0.022698,-0.11492 -0.01308,-0.0485 -0.016215,-0.0978 -0.018973,-0.14779 -0.0034,-0.0454 -0.00669,-0.0908 -0.011757,-0.13603 -0.00481,-0.0387 -0.010816,-0.0774 -0.022713,-0.11478 -0.01314,-0.0485 -0.016354,-0.0978 -0.01923,-0.14775 -0.00362,-0.0474 -0.00736,-0.0948 -0.010708,-0.14218 -0.00323,-0.049 -0.00661,-0.0982 -0.00276,-0.14717 0.00517,-0.0441 0.017559,-0.0854 0.031768,-0.12725 0.015349,-0.0371 0.034784,-0.0733 0.058876,-0.1055 0.022615,-0.0374 0.04534,-0.0752 0.075139,-0.10733 0.030624,-0.038 0.063703,-0.0745 0.1057793,-0.10015 0.040922,-0.0249 0.085052,-0.0395 0.1317068,-0.05 0.049613,-0.01 0.1002192,-0.0105 0.1506535,-0.0119 0.046376,-4.5e-4 0.092701,0.002 0.1383142,0.0119 0.048128,0.008 0.098873,0.003 0.1449024,0.0223 0.035462,0.0134 0.073065,0.0215 0.1073519,0.0385 0.034296,0.0157 0.068494,0.0311 0.1016333,0.0492 0.036262,0.0227 0.073358,0.044 0.1091546,0.0674 0.052512,0.0393 0.109897,0.0717 0.1608368,0.11328 0.075946,0.0654 -0.016552,0.17281 -0.092496,0.1074 z"
       inkscape:connector-curvature="0" />
    <path
       style="fill:#ffffff;fill-opacity:0.74901961;stroke:#ffffff;stroke-width:0.1;stroke-linecap:round;stroke-linejoin:round;stroke-miterlimit:4;stroke-dasharray:none;stroke-dashoffset:0;stroke-opacity:0.74901961"
       id="path910"
       d="m 2.3705892,294.11986 c -0.00196,-0.0632 0.00751,-0.12514 0.018336,-0.18713 0.011472,-0.0455 0.026917,-0.0894 0.047159,-0.13177 0.017076,-0.0403 0.040813,-0.0773 0.067581,-0.11181 0.016304,-0.0271 0.033411,-0.0539 0.050199,-0.0809 0.020052,-0.0297 0.045256,-0.0554 0.066704,-0.0839 0.020811,-0.0244 0.044259,-0.0469 0.059854,-0.0753 0.020305,-0.0338 0.045049,-0.0644 0.067792,-0.0965 0.021158,-0.0276 0.046122,-0.0523 0.067114,-0.0801 0.030859,-0.0349 0.068063,-0.0622 0.1102303,-0.0816 0.050172,-0.0183 0.1034823,-0.0258 0.1566461,-0.0249 0.027508,0.003 0.054934,0.006 0.082567,0.008 0.1000067,0.007 0.090589,0.14808 -0.00941,0.14143 v 0 c -0.026493,-0.002 -0.052853,-0.004 -0.079146,-0.008 -0.031051,-0.004 -0.063791,0.007 -0.093935,0.013 -0.021913,0.008 -0.039037,0.024 -0.055778,0.0396 -0.020619,0.0255 -0.042601,0.0499 -0.063444,0.0752 -0.020758,0.0283 -0.042401,0.0559 -0.060815,0.086 -0.020011,0.0326 -0.043641,0.0623 -0.069938,0.09 -0.019362,0.0243 -0.040036,0.0475 -0.058623,0.0725 -0.01996,0.0313 -0.038794,0.0633 -0.059554,0.094 -0.02167,0.0248 -0.03706,0.0551 -0.050549,0.0849 -0.015073,0.0303 -0.025287,0.0618 -0.035041,0.0943 -0.00884,0.0505 -0.017331,0.10057 -0.01661,0.15218 0.00745,0.0999 -0.1338963,0.11048 -0.1413487,0.0105 z"
       inkscape:connector-curvature="0" />
    <path
       style="fill:#ffffff;fill-opacity:0.74901961;stroke:#ffffff;stroke-width:0.1;stroke-linecap:round;stroke-linejoin:round;stroke-miterlimit:4;stroke-dasharray:none;stroke-dashoffset:0;stroke-opacity:0.74901961"
       id="path916"
       d="m 1.7103368,292.61401 c 0.00807,-0.064 0.023964,-0.12681 0.04529,-0.18757 0.033261,-0.0945 0.1669694,-0.0475 0.1337084,0.047 v 0 c -0.018335,0.052 -0.031992,0.10578 -0.038682,0.16058 -0.014174,0.0992 -0.1544906,0.0792 -0.1403165,-0.02 z"
       inkscape:connector-curvature="0" />
    <path
       style="fill:#ffffff;fill-opacity:0.74901961;stroke:#ffffff;stroke-width:0.1;stroke-linecap:round;stroke-linejoin:round;stroke-miterlimit:4;stroke-dasharray:none;stroke-dashoffset:0;stroke-opacity:0.74901961"
       id="path920"
       d="m 3.5125954,293.02356 c -0.053148,-0.0293 -0.1017449,-0.0652 -0.1502264,-0.10135 -0.00708,-0.006 -0.014163,-0.0124 -0.021243,-0.0186 -0.074702,-0.0668 0.019796,-0.17246 0.094498,-0.10564 v 0 c 0.00387,0.004 0.00775,0.007 0.011623,0.0108 0.041685,0.0312 0.083315,0.0623 0.1287391,0.0881 0.089645,0.0448 0.026257,0.1716 -0.063389,0.12678 z"
       inkscape:connector-curvature="0" />
    <path
       style="fill:#ffffff;fill-opacity:0.74901961;stroke:#ffffff;stroke-width:0.1;stroke-linecap:round;stroke-linejoin:round;stroke-miterlimit:4;stroke-dasharray:none;stroke-dashoffset:0;stroke-opacity:0.74901961"
       id="path928"
       d="m 1.2402344,292.94886 c 0.00107,-0.0115 0.00214,-0.0231 0.0032,-0.0346 0.010317,-0.0997 0.1513055,-0.0851 0.1409881,0.0146 v 0 c -8.176e-4,0.007 -0.00163,0.0133 -0.00245,0.02 0,0.10023 -0.141741,0.10023 -0.141741,0 z"
       inkscape:connector-curvature="0" />
  </g>
</svg>
